PathFileType	3	(X/Y/Z)	C:\Users\koon_\Desktop\
DataRate	CameraRate	NumFrames	NumMarkers	Units	OrigDataRate	OrigDataStartFrame	OrigNumFrames
100.0	100.0	4	27	mm	100.0	4167	4762	
Frame#	Time	get:LFHD			get:RFHD			get:LBHD			get:RBHD			get:C7			get:T10			get:CLAV			get:STRN			get:RBAK			get:LSHO			get:LUPA			get:LELB			get:LFRA			get:LWRA			get:LWRB			get:LFIN			get:RSHO			get:RUPA			get:RELB			get:RFRA			get:RWRA			get:RWRB			get:RFIN			get:LASI			get:RASI			get:LPSI			get:RPSI			
		X1	Y1	Z1	X2	Y2	Z2	X3	Y3	Z3	X4	Y4	Z4	X5	Y5	Z5	X6	Y6	Z6	X7	Y7	Z7	X8	Y8	Z8	X9	Y9	Z9	X10	Y10	Z10	X11	Y11	Z11	X12	Y12	Z12	X13	Y13	Z13	X14	Y14	Z14	X15	Y15	Z15	X16	Y16	Z16	X17	Y17	Z17	X18	Y18	Z18	X19	Y19	Z19	X20	Y20	Z20	X21	Y21	Z21	X22	Y22	Z22	X23	Y23	Z23	X24	Y24	Z24	X25	Y25	Z25	X26	Y26	Z26	X27	Y27	Z27	
4167	41.66	92.099976	1539.3822	77.065681	-46.967983	1520.5005	58.743832	85.156425	1562.7263	-83.748375	-40.553917	1522.3341	-110.58694	133.61639	1333.3093	-105.09635	76.767357	1137.963	-160.63263	-6.5319085	1285.2264	31.392351	-70.618645	1094.6313	69.518204	77.750839	1271.9426	-185.97188	173.283	1317.5038	34.495895	231.58644	1172.3026	58.860348	294.40829	1009.616	-7.6596546	300.54193	871.20691	6.7357407	293.84479	788.96014	-7.886435	348.59479	820.89496	-65.932999	375.80145	750.74896	-6.0459208	38.231339	1377.8729	-120.07209	18.081768	1461.74	-217.21396	-22.477177	1546.8792	-310.01151	43.309227	1506.6323	-275.57397	167.54132	1513.6398	-204.12149	172.37648	1593.5734	-211.64081	259.0936	1536.6368	-198.32957	57.811642	875.54327	75.25602	-181.01865	880.15308	-42.274292	69.54528	948.27673	-153.24098	-9.617341	949.81262	-194.92833
4168	41.67	91.930115	1539.3761	77.158783	-46.944912	1521.422	59.174553	85.373413	1562.8105	-83.315971	-38.295067	1522.3412	-109.04713	132.8047	1333.8326	-105.63158	75.764137	1138.4192	-160.80673	-6.403533	1285.1859	32.086571	-69.759521	1094.4081	70.423988	76.172607	1272.3901	-185.92015	173.52068	1318.3274	33.588829	232.58415	1173.3518	57.351913	294.96164	1010.564	-9.2721081	301.32996	872.24103	5.8835683	294.53091	789.96021	-7.9497938	348.18695	821.39142	-66.993683	376.4874	751.77454	-6.890224	36.823246	1378.1033	-119.3474	15.661525	1462.1586	-216.50165	-26.60433	1547.1737	-309.28445	40.721867	1509.3992	-276.06128	167.11383	1520.9222	-207.32275	169.38954	1600.9811	-216.50877	257.99411	1546.5787	-204.67349	59.291718	875.69525	74.764214	-180.49138	879.87518	-41.082237	69.189865	948.474	-153.84457	-10.278143	949.98303	-195.03641
4169	41.68	92.081703	1539.5879	77.568237	-46.903214	1522.3745	59.530132	85.437531	1562.989	-82.888527	-38.074139	1522.9371	-108.5938	132.01767	1334.3923	-106.5241	74.704071	1138.9325	-161.12349	-6.1217489	1285.1846	33.039474	-68.873611	1094.2174	71.333565	74.501587	1272.9008	-185.87939	173.85388	1319.2517	32.435783	233.63356	1174.4969	55.649483	295.57907	1011.5165	-10.994956	302.25299	873.34564	5.0970464	295.23416	790.97607	-7.9870772	348.43539	822.05652	-68.10408	377.15359	752.79535	-7.763341	35.455364	1378.4561	-118.76536	13.127192	1462.5627	-215.71207	-30.832916	1547.4972	-308.37012	38.202679	1512.1194	-276.30969	166.27592	1528.5006	-211.01077	165.90131	1608.5114	-221.64198	256.4837	1556.7065	-211.22562	60.745716	875.82635	74.240883	-179.88478	879.66394	-39.708805	68.844345	948.64685	-154.38091	-10.987248	950.12549	-195.02715
4170	41.69	92.215477	1539.8246	77.967171	-46.826633	1523.3256	59.84071	85.578056	1563.1162	-82.507431	-37.892883	1523.6262	-108.26885	131.10719	1334.9901	-107.34375	73.616951	1139.4846	-161.40915	-5.8100333	1285.1932	33.836857	-67.84993	1094.1564	72.872154	72.735634	1273.4418	-185.97913	174.18861	1320.1969	31.261557	234.73042	1175.7859	54.018543	296.27927	1012.5228	-12.839618	303.22913	874.53302	4.32371	296.03909	792.03748	-8.1151943	348.41852	822.68073	-69.081711	377.80899	753.83398	-8.7077618	33.97438	1378.7083	-118.07235	10.436949	1463.0413	-214.91624	-35.279202	1547.8325	-307.1795	35.425495	1514.9358	-276.49658	164.98372	1536.0911	-214.60855	161.83397	1616.0338	-226.71581	254.21745	1567.1389	-217.89351	62.262051	876.02124	73.733391	-179.28976	879.41901	-38.424519	68.468872	948.84875	-154.99178	-11.61312	950.22821	-194.9509
